<?xml version="1.0" encoding="UTF-8" standalone="no"?>
<!DOCTYPE svg PUBLIC "-//W3C//DTD SVG 20010904//EN" "http://www.w3.org/TR/2001/REC-SVG-20010904/DTD/svg10.dtd">
<svg version="1.0" xmlns="http://www.w3.org/2000/svg" width="500.000000pt" height="500.000000pt" viewBox="0 0 500.000000 500.000000" preserveAspectRatio="xMidYMid meet">
<metadata>
Created by potrace 1.14, written by Peter Selinger 2001-2017
</metadata>
<g transform="translate(0.000000,500.000000) scale(0.100000,-0.100000)" fill="#000000" stroke="none">
<path d="M1980 4699 c-283 -165 -515 -302 -515 -306 0 -3 484 -286 1075 -628 l1075 -623 5 -511 5 -511 523 302 522 302 0 515 -1 516 -1074 620 c-590 341 -1080 621 -1087 622 -7 1 -245 -133 -528 -298z"/>
<path d="M783 4007 l-433 -252 0 -1255 0 -1255 516 -300 c284 -165 521 -301 525 -303 5 -2 9 559 9 1250 l0 1253 440 254 c242 139 440 255 440 256 0 8 -1039 605 -1051 604 -8 0 -209 -114 -446 -252z"/>
<path d="M3600 1849 c-580 -336 -1064 -615 -1075 -621 -18 -8 -92 31 -449 237 -235 135 -434 249 -442 252 -12 4 -14 -81 -12 -603 l3 -608 435 -252 c239 -139 440 -253 445 -253 6 0 494 280 1085 622 l1075 622 3 608 c1 334 -1 607 -5 607 -5 0 -483 -275 -1063 -611z"/>
</g>
</svg>